<svg width="20" height="20" viewBox="0 0 20 20" fill="none" xmlns="http://www.w3.org/2000/svg">
<path d="M19.8295 6.7142C19.7067 5.50961 19.4424 4.17797 18.4694 3.47817C17.7159 2.93549 16.7254 2.91543 15.8008 2.91654C13.8461 2.91766 11.8904 2.91989 9.93581 2.921C8.05578 2.92323 6.17574 2.92435 4.29571 2.92658C3.51035 2.92769 2.74693 2.8653 2.01751 3.21074C1.3912 3.50715 0.900903 4.07099 0.605845 4.69836C0.196714 5.57088 0.111162 6.55931 0.0618033 7.52432C-0.0292367 9.28163 -0.0193649 11.0434 0.089225 12.7996C0.169296 14.0811 0.372213 15.4974 1.34733 16.3142C2.21166 17.0374 3.43137 17.073 4.55237 17.0742C8.11061 17.0775 11.67 17.0809 15.2293 17.0831C15.6856 17.0842 16.1616 17.0753 16.6267 17.024C17.5415 16.9237 18.4135 16.6574 19.0014 15.9687C19.5948 15.2745 19.7473 14.3084 19.8372 13.3935C20.0566 11.1738 20.0544 8.93284 19.8295 6.7142ZM7.87808 13.1116V6.88804L13.1825 9.99925L7.87808 13.1116Z" fill="#eab381"/>
</svg>
